<svg width="154" height="40" viewBox="0 0 154 40" fill="none" xmlns="http://www.w3.org/2000/svg">
<g clip-path="url(#clip0_31_149)">
<path fill-rule="evenodd" clip-rule="evenodd" d="M114.082 12.2569C117.512 10.5954 122.205 10.4846 125.245 11.9954C128.665 13.7 130.675 17.1031 131.188 22.0415C131.253 22.6253 131.283 23.2126 131.277 23.8L131.24 24.3508L114.871 24.4077L114.902 25.3692C114.974 27.5954 115.455 29.5646 116.348 31.2769C116.752 32.0538 117.075 32.48 117.858 33.2646C119.628 35.0415 121.386 35.7262 124.163 35.7262C126.175 35.7262 127.625 35.3262 129.137 34.3523C129.562 34.0815 129.991 33.8569 130.091 33.8569C130.322 33.8569 130.854 34.5369 130.854 34.8338C130.854 35.3169 129.266 36.88 127.718 37.9185C126.451 38.7692 124.442 39.54 122.697 39.8415C121.477 40.0538 118.734 40.0477 117.528 39.8323C112.04 38.8477 108.115 34.9831 106.835 29.2938C106.671 28.5615 106.597 27.7431 106.558 26.16C106.492 23.6554 106.697 22.0985 107.349 20.1677C108.598 16.46 110.837 13.8292 114.088 12.2538L114.082 12.2569ZM87.4646 0C87.5677 0.00307692 87.5831 1.43692 87.5292 6.37846L87.5185 12.7692C87.5492 12.7692 87.9646 12.5923 88.4354 12.3738C89.86 11.72 91.1738 11.4354 93.0815 11.3677C94.3523 11.3246 94.94 11.3523 95.5923 11.4846C99.8538 12.3615 103.008 15.8277 104.108 20.8462C104.395 22.1538 104.502 25.4092 104.311 27.0385C104.148 28.4277 103.685 30.3 103.203 31.5154C101.382 36.1 97.4708 39.0877 92.2846 39.8662C91.0908 40.0431 87.3384 40.0662 85.7308 39.9046C83.8461 39.6643 81.971 39.3544 80.1092 38.9754L79.2984 38.7908L79.36 34.4908L79.4323 12.9877L79.0985 6.23846C78.8338 5.22923 78.4523 4.52615 77.9908 4.2C77.8123 4.07231 77.3292 3.89538 76.9138 3.8C75.5369 3.49231 75.6108 3.54308 75.5754 2.91846C75.5538 2.55846 75.5938 2.32154 75.6861 2.24923C75.8092 2.15077 87.1061 0.00923077 87.4661 0.0153846L87.4646 0ZM34.7154 12.3785C38.8385 10.3231 44.6385 10.4523 48.4538 12.6862C51.8892 14.6954 53.9692 18.2662 54.5461 23.1446C54.7231 24.6369 54.6077 27.78 54.3308 29.0785C53.1923 34.3923 49.8723 38.1062 45.0108 39.5046C44.4175 39.6707 43.8149 39.8017 43.2061 39.8969C42.2138 40.0354 39.1846 40.0308 38.2246 39.8923C35.5431 39.5046 33.1969 38.3754 31.4061 36.6123C29.9138 35.1415 28.9446 33.5246 28.2292 31.3092C27.1138 27.8477 27.1138 23.4015 28.2277 20.0108C29.3077 16.7262 31.7385 13.8677 34.7154 12.38V12.3785ZM151.88 12.2323L152.28 12.4015L152.351 14.64L152.44 18.3062L152.458 19.7369L151.923 19.9338C151.077 20.2462 151.022 20.2077 150.551 18.9677C149.231 15.4908 147.697 13.8446 145.308 13.3446C143.851 13.0369 142.634 13.3662 141.749 14.3062C141.06 15.04 140.789 15.6908 140.725 16.7831C140.654 17.9677 140.866 18.6077 141.595 19.3985C142.492 20.3754 143.965 21.2169 146.892 22.4323C150.48 23.9246 152.191 25.1862 153.123 27.0354C153.728 28.2354 153.898 29.1954 153.837 31.0415C153.791 32.4262 153.748 32.7108 153.429 33.6569C152.395 36.6877 150.06 38.6846 146.457 39.62C145.235 39.9369 145.062 39.9523 142.634 39.98C141.249 39.9954 139.891 39.9862 139.649 39.96C137.68 39.7508 134.542 39.0677 133.498 38.6215L132.988 38.4031L132.918 35.8923L132.82 31.7892L132.792 30.1954L133.097 30.0508C133.251 29.9708 133.605 29.8969 133.866 29.8846L134.312 29.8631L134.694 30.7985C136.186 34.4446 137.931 36.4077 140.214 37.0062C141.085 37.2338 142.717 37.2369 143.362 37.0092C145.168 36.3754 146.157 35.0169 146.166 33.16C146.175 31.0338 145.037 29.9754 140.802 28.2938L140.368 28.1246C137.522 27.02 136.529 26.4523 135.346 25.2477C134.069 23.9508 133.458 22.4738 133.346 20.4169C133.192 17.9338 133.989 15.8385 135.725 14.0523C137.469 12.2554 139.735 11.2831 142.822 11.0031C145.538 10.7569 149.711 11.3262 151.898 12.2338L151.88 12.2323ZM15.9877 0.684615L31.2492 0.715385L31.32 1.15385C31.36 1.39692 31.4246 3.87692 31.4631 6.66615L31.5354 11.7385L30.7508 11.9769C29.5661 12.3338 29.5738 12.3385 29.04 10.9385C27.7323 7.49692 26.2308 5.51538 24.1785 4.51385C22.8154 3.84769 22.1569 3.74462 18.5385 3.73846H14.6246L14.5631 4.31538C14.4554 5.36154 14.2861 11.9154 14.2738 15.3092V18.9092L15.2969 18.9031L17.7615 18.8108C18.9538 18.74 19.3092 18.6769 19.8077 18.4477C21.0338 17.8831 21.8692 16.6415 22.3769 14.62L22.6385 13.5738L23.5415 13.5431L24.4446 13.5092V26.7185L22.6385 26.6569L22.3815 25.6108C21.9 23.6508 20.9723 22.2462 19.8277 21.7415C19.2985 21.5077 17.9892 21.3769 15.4585 21.3015L14.2692 21.2646V23.7462L14.6108 32.0908C14.8785 34.86 15.5892 36.3877 16.8677 36.94C17.1108 37.0477 17.8831 37.2169 18.5831 37.3215C19.2831 37.4262 19.9415 37.5569 20.0492 37.6108C20.3185 37.7646 20.3354 39.18 20.0677 39.2846C19.8585 39.3646 0.339991 39.3585 0.139991 39.2785C0.0476835 39.2415 -0.013855 38.9677 -0.013855 38.46V38.2138C-0.00770113 37.5523 0.104607 37.5569 1.69999 37.2631C3.05999 37.0123 3.54614 36.7554 4.16153 35.9738C5.32615 34.4569 5.57691 31.5369 5.57999 19.5123C5.58307 8.22 5.36461 5.84462 4.15999 4.09692C3.62615 3.32308 2.72615 2.90154 1.21845 2.72308L0.0569143 2.56923L0.026145 1.66769L-8.82708e-06 0.784615L0.363068 0.718462C0.563068 0.683077 7.59384 0.667692 15.9877 0.684615ZM74.4954 10.8846C76.0185 10.8846 77.5415 11.3769 77.5415 11.8738C77.5415 12.2062 74.8554 19.2585 74.7077 19.3138C74.6354 19.3415 74.1108 19.1446 73.5431 18.8723C72.3585 18.3062 71.2446 18.0308 70.1646 18.0323C68.82 18.0354 67.3185 18.5277 66.7246 19.16C66.4708 19.4308 66.4692 19.4477 66.4061 23.4831C66.3446 27.4831 66.4785 32.36 66.7046 34.3231C66.8969 35.9954 67.3446 36.8154 68.2677 37.2C68.5754 37.3292 70.5246 37.5938 71.16 37.5954C71.2061 37.5954 71.2323 37.98 71.2154 38.4462L71.1846 39.2985L63 39.3262C58.4985 39.3415 54.7508 39.3108 54.6723 39.2615C54.5723 39.1969 54.5385 38.9431 54.5615 38.4092L54.5923 37.6508L54.98 37.5692C55.1923 37.5231 55.6508 37.4338 55.9954 37.3692C57.0661 37.1692 57.6815 36.5923 58.0261 35.4615C58.3077 34.5385 58.4323 31.5908 58.4385 25.6692V24.6477C58.4308 18.2631 58.2584 16.6677 57.5569 15.7462C57.1569 15.22 56.8692 15.0692 55.9 14.8846L54.7815 14.6692C54.56 14.6231 54.5323 14.5523 54.5323 14.0123C54.5323 13.4892 54.5661 13.3938 54.7815 13.3046C55.1123 13.1692 66.0692 10.9923 66.42 10.9923H66.6923L66.6431 12.6154L66.5385 15.5L66.4877 16.7646L66.8846 16.0523C68.1554 13.7754 69.58 12.36 71.4754 11.4985C72.5154 11.0246 73.2092 10.8831 74.4954 10.8831V10.8846ZM43.2308 13.7846C42.1785 12.84 40.5415 12.5308 39.3615 13.0538C37.6385 13.8154 36.5308 16.0738 36.0077 19.8954C35.6354 22.6185 35.6738 28.1723 36.0846 30.6677C36.7308 34.6062 38.0185 37.0985 39.8354 37.9169C40.5677 38.2462 41.9077 38.2277 42.6661 37.8769C44.7554 36.9108 45.8754 34.1292 46.2415 29C46.7492 21.8508 45.5708 15.8846 43.2338 13.7846H43.2308ZM91.9231 14.6846C90.9261 14.2138 89.5231 14.1569 88.2308 14.5308L87.3461 14.7846L87.2461 18.2462C87.12 22.6123 87.3231 37.5338 87.5154 37.76C87.5831 37.8415 87.8231 37.9262 88.0461 37.9508C89.0461 38.0554 90.1646 38.02 90.6877 37.8646C91.4985 37.6262 92.5338 36.8954 93.16 36.12C94.4477 34.5231 95.3754 32.0523 95.8831 28.8492C96.1261 27.3138 96.16 23.0031 95.9369 21.7631C95.2538 17.9538 93.94 15.6246 91.9369 14.6862L91.9231 14.6846ZM119.508 12.7692C119.382 12.7692 119.011 12.8462 118.683 12.9446C118.222 13.0831 117.942 13.2677 117.357 13.8677C116.272 14.9538 115.485 16.7169 114.992 19.16C114.788 20.1723 114.582 22.1292 114.665 22.2631C114.726 22.36 119.683 22.2938 121.992 22.1677L123.143 22.1062L123.077 20.3538C122.942 16.8692 122.257 14.5154 121.062 13.4215C120.6 13.0138 120.015 12.7554 119.508 12.7538V12.7692Z" fill="white"/>
</g>
<defs>
<clipPath id="clip0_31_149">
<rect width="153.846" height="40" fill="white"/>
</clipPath>
</defs>
</svg>
