<svg width="190" height="30" viewBox="0 0 190 30" fill="none" xmlns="http://www.w3.org/2000/svg">
<path d="M29.2018 5.67205H26.5408V28.8636H21.5545L9.41246 13.0696V23.7134H12.0734V28.8636H0.852173V23.7134H3.51312V5.67205H0.852173V0.521851H9.41246L20.7195 15.2389V5.67205H18.0586V0.521851H29.2798C29.2018 0.521851 29.2018 5.67205 29.2018 5.67205ZM46.9934 18.8909C46.9934 19.3045 46.9934 19.7259 46.9934 20.2175H34.6017C34.2662 24.205 35.7644 25.3677 38.0118 25.3677C39.9236 25.3677 41.336 24.1191 41.336 22.1293H46.6579C46.5721 25.6174 44.7461 29.6127 37.6762 29.6127C30.6922 29.6127 27.4538 24.5405 27.4538 18.8909C27.4538 13.8187 30.7781 8.41883 37.5982 8.41883C44.0828 8.41883 46.9934 12.9916 46.9934 18.8909ZM77.5826 13.8187H75.7566L71.1839 29.1991H65.1128L62.288 20.8027L59.7129 29.1991H53.5639L48.4917 13.8187H46.6657V8.5827H57.3875V13.8187H54.7266L57.5514 21.9654L61.2112 8.5827H64.5354L69.0223 21.9654L71.4336 13.8187H68.7726V8.5827H77.7543C77.5826 8.5827 77.5826 13.8187 77.5826 13.8187ZM85.1441 13.9826C85.1441 14.7317 85.7293 15.2311 87.7192 15.8086L90.6298 16.7216C93.2908 17.6346 96.5292 19.5464 96.5292 23.2062C96.5292 27.4434 93.3688 29.5269 89.3813 29.5269C86.2209 29.5269 83.8097 28.0286 83.1464 27.2795V29.0274H77.9104V21.8796H83.0606C83.2244 24.205 85.3079 25.4535 87.1339 25.4535C88.6322 25.4535 89.3813 24.7902 89.3813 24.0411C89.3813 23.1281 88.7961 22.5429 86.2209 21.7157L83.6458 20.8808C81.0707 20.0458 78.1601 18.134 78.1601 14.6459C78.1601 10.4087 81.8979 8.32519 85.0583 8.32519C88.3825 8.32519 89.9666 9.23818 90.7937 10.1512V8.57489H96.0298V14.9736H90.6298C90.544 13.2257 88.8819 12.4766 87.1417 12.4766C85.7293 12.5702 85.1441 13.1555 85.1441 13.9826ZM127.875 13.8187H126.049L121.477 29.1991H115.406L112.581 20.8027L110.006 29.1991H103.857L98.7844 13.8187H96.9584V8.5827H107.68V13.8187H105.019L107.844 21.9654L111.418 8.5827H114.742L119.229 21.9654L121.64 13.8187H118.901V8.5827H127.875V13.8187ZM146.83 18.8909C146.83 19.3045 146.83 19.7259 146.83 20.2175H134.524C134.188 24.205 135.686 25.3677 137.934 25.3677C139.846 25.3677 141.258 24.1191 141.258 22.1293H146.58C146.494 25.6174 144.582 29.6127 137.598 29.6127C130.528 29.6127 127.29 24.5405 127.29 18.8909C127.29 13.8187 130.7 8.41883 137.512 8.41883C144.005 8.41883 146.83 12.9057 146.83 18.8909ZM167.111 18.8051C167.111 19.2186 167.111 19.64 167.111 20.1316H154.805C154.469 24.1191 155.967 25.2818 158.215 25.2818C160.127 25.2818 161.539 24.0333 161.539 22.0435H166.861C166.775 25.5315 164.863 29.5269 157.879 29.5269C150.809 29.5269 147.571 24.4547 147.571 18.8051C147.571 13.7329 150.981 8.33299 157.793 8.33299C164.286 8.33299 167.111 12.8199 167.111 18.8051ZM189.475 29.1133H183.326L176.927 20.7169L174.852 22.2932V23.9553H176.678V29.1913H167.118V24.0411H168.944V5.75789H166.283V0.521851H174.844V16.9791L179.167 13.8187H176.506V8.5827H187.891V13.8187H186.065L181.578 17.143L186.728 23.8772H189.389C189.475 23.9631 189.475 29.1133 189.475 29.1133ZM154.812 16.8152H161.547C161.547 13.9046 159.635 12.7419 158.308 12.7419C156.638 12.7419 154.891 14.0684 154.812 16.8152ZM134.524 16.8152H141.258C141.258 13.9046 139.346 12.7419 137.934 12.7419C136.358 12.8199 134.61 14.1543 134.524 16.8152ZM34.6875 16.8933H41.4218C41.4218 13.9826 39.51 12.8199 38.0976 12.8199C36.4355 12.8199 34.7734 14.1543 34.6875 16.8933Z" fill="white"/>
</svg>
