<svg width="196" height="35" viewBox="0 0 196 35" fill="none" xmlns="http://www.w3.org/2000/svg">
<g clip-path="url(#clip0_31_153)">
<path d="M29.8067 35C30.1042 35 30.3317 34.8935 30.4862 34.6792C30.6408 34.4648 30.7196 34.2052 30.7196 33.896C30.7196 33.7065 30.7123 33.5577 30.6977 33.4556L28.7815 22.4306L36.8723 14.6242C37.2588 14.2421 37.4512 13.8892 37.4512 13.5654C37.4512 13.0215 37.0356 12.6831 36.2029 12.5504L25.0131 10.9375L19.9979 0.904167C19.715 0.301875 19.3504 0 18.9056 0C18.4608 0 18.0962 0.301875 17.8119 0.904167L12.7996 10.9375L1.61125 12.549C0.77854 12.6817 0.362915 13.02 0.362915 13.5625C0.362915 13.8717 0.548123 14.2246 0.919998 14.6213L9.03271 22.4277L7.11646 33.4527L7.07271 33.8931C7.07271 34.2023 7.15 34.4619 7.30604 34.6763C7.46208 34.8906 7.69542 34.9971 8.00604 34.9971C8.27292 34.9971 8.57041 34.9096 8.89562 34.7346L18.9027 29.5283L28.9098 34.7346C29.2219 34.9096 29.5194 34.9971 29.7994 34.9971L29.8067 35ZM74.0233 35C74.3208 35 74.5483 34.8935 74.7029 34.6792C74.8575 34.4648 74.9363 34.2052 74.9363 33.896C74.9363 33.7065 74.929 33.5577 74.9144 33.4556L72.9981 22.4306L81.089 14.6242C81.4754 14.2421 81.6679 13.8892 81.6679 13.5654C81.6679 13.0215 81.2523 12.6831 80.4196 12.5504L69.2312 10.9375L64.216 0.904167C63.9331 0.301875 63.57 0 63.1223 0C62.6746 0 62.3129 0.301875 62.0285 0.904167L57.0192 10.9375L45.8308 12.5475C44.9996 12.6788 44.5825 13.0185 44.5825 13.5625C44.5825 13.8717 44.7677 14.2246 45.1396 14.6213L53.2523 22.4277L51.336 33.4527L51.2923 33.8931C51.2923 34.2023 51.3696 34.4619 51.5256 34.6763C51.6817 34.8906 51.915 34.9971 52.2256 34.9971C52.4925 34.9971 52.79 34.9096 53.1152 34.7346L63.1223 29.5283L73.1294 34.7346C73.4415 34.9096 73.739 34.9971 74.019 34.9971L74.0233 35ZM118.24 35C118.538 35 118.765 34.8935 118.92 34.6792C119.074 34.4648 119.153 34.2052 119.153 33.896C119.153 33.7065 119.146 33.5577 119.131 33.4556L117.215 22.4306L125.306 14.6242C125.692 14.2421 125.885 13.8892 125.885 13.5654C125.885 13.0215 125.469 12.6831 124.636 12.5504L113.449 10.9375L108.436 0.904167C108.153 0.301875 107.79 0 107.342 0C106.894 0 106.533 0.301875 106.248 0.904167L101.236 10.9375L90.0475 12.5475C89.2163 12.6788 88.7992 13.0185 88.7992 13.5625C88.7992 13.8717 88.9844 14.2246 89.3562 14.6213L97.469 22.4277L95.5527 33.4527L95.509 33.8931C95.509 34.2023 95.5863 34.4619 95.7423 34.6763C95.8983 34.8906 96.1317 34.9971 96.4423 34.9971C96.7092 34.9971 97.0067 34.9096 97.3319 34.7346L107.339 29.5283L117.346 34.7346C117.658 34.9096 117.956 34.9971 118.236 34.9971L118.24 35ZM162.457 35C162.754 35 162.982 34.8935 163.136 34.6792C163.291 34.4648 163.37 34.2052 163.37 33.896C163.37 33.7065 163.362 33.5577 163.348 33.4556L161.431 22.4306L169.522 14.6242C169.909 14.2421 170.101 13.8892 170.101 13.5654C170.101 13.0215 169.686 12.6831 168.853 12.5504L157.667 10.9375L152.651 0.904167C152.368 0.301875 152.005 0 151.557 0C151.109 0 150.748 0.301875 150.463 0.904167L145.452 10.9375L134.267 12.549C133.436 12.6802 133.019 13.02 133.019 13.564C133.019 13.8731 133.204 14.226 133.576 14.6227L141.689 22.4292L139.772 33.4542L139.729 33.8946C139.729 34.2038 139.806 34.4633 139.962 34.6777C140.118 34.8921 140.351 34.9985 140.662 34.9985C140.929 34.9985 141.226 34.911 141.551 34.736L151.559 29.5298L161.566 34.736C161.878 34.911 162.175 34.9985 162.455 34.9985L162.457 35ZM184.879 35C185.145 35 185.443 34.9125 185.768 34.7375L195.78 29.5312V0C195.333 0 194.97 0.301875 194.686 0.904167L189.669 10.9375L178.481 12.5475C177.65 12.6788 177.232 13.0185 177.232 13.5625C177.232 13.8717 177.418 14.2246 177.79 14.6213L185.902 22.4277L183.986 33.4527L183.942 33.8931C183.942 34.2023 184.02 34.4619 184.176 34.6763C184.332 34.8906 184.565 34.9971 184.876 34.9971L184.879 35Z" fill="white"/>
</g>
<defs>
<clipPath id="clip0_31_153">
<rect width="195.417" height="35" fill="white" transform="translate(0.362915)"/>
</clipPath>
</defs>
</svg>
