<svg width="97" height="45" viewBox="0 0 97 45" fill="none" xmlns="http://www.w3.org/2000/svg">
<g clip-path="url(#clip0_117_394)">
<path d="M61.4221 0.119324C61.304 0.119324 61.304 0.0012207 61.1859 0.0012207H35.2032C34.3765 0.35553 33.786 0.709838 33.5498 1.65466C33.4317 1.89087 33.4317 2.00897 33.4317 2.24518V42.7545C33.4317 43.8174 34.0222 44.526 34.967 44.8803C35.0851 44.8803 35.0851 44.9985 35.2032 44.9985H61.1859C62.0126 44.6441 62.6031 44.2898 62.8393 43.345C62.9574 43.1088 62.9574 42.9907 62.9574 42.7545V2.24518C62.8393 1.18225 62.3669 0.473633 61.4221 0.119324ZM54.5721 33.0701C54.5721 33.5425 54.454 33.6606 53.9816 33.6606H46.6592C43.7066 33.6606 41.9351 31.889 41.9351 28.9364V28.8183V21.0235V12.9925C41.9351 12.2839 42.0532 12.2839 42.6437 12.2839H45.3601C46.0687 12.2839 46.0687 12.402 46.0687 12.9925V27.0468C46.0687 28.7002 46.7773 29.4089 48.4308 29.4089H53.9816C54.6902 29.4089 54.6902 29.527 54.6902 30.1175C54.5721 31.1804 54.5721 32.1252 54.5721 33.0701ZM27.999 0.0012207H2.13446C1.18963 0.237427 0.599121 0.827941 0.362915 1.77277V43.1088C0.599121 44.0536 1.18963 44.526 2.13446 44.8803H28.1171C28.2352 44.7622 28.2352 44.7622 28.3533 44.7622C29.2981 44.4079 29.8886 43.6993 29.8886 42.6364V33.4244V2.59949C29.6524 1.41846 29.2981 0.473633 27.999 0.0012207ZM23.9835 15.9451C23.9835 16.5356 23.8654 16.5356 23.393 16.5356H17.1335V32.952C17.1335 33.6606 17.0154 33.7787 16.3068 33.7787H13.5904C12.9999 33.7787 12.8818 33.6606 12.8818 33.0701V17.1262V16.5356H6.50426C6.14995 16.5356 5.91375 16.4175 5.91375 16.0632V12.7563C5.91375 12.6382 6.14995 12.402 6.38616 12.2839C6.50426 12.1658 6.62236 12.2839 6.74047 12.2839H23.1568C23.8654 12.2839 23.9835 12.402 23.9835 13.1107V15.9451ZM94.3727 0.0012207H68.3901C68.272 0.119324 68.272 0.119324 68.1539 0.119324C67.2091 0.473633 66.6186 1.18225 66.6186 2.24518V42.164C66.6186 43.4631 66.9729 44.4079 68.272 44.8803H94.2546C95.1995 44.6441 95.6719 44.0536 96.0262 43.1088V1.65466C95.9081 0.827941 95.3176 0.237427 94.3727 0.0012207ZM82.4444 29.527C84.334 29.7632 85.9874 29.1727 87.4047 27.9916C87.759 27.7554 87.9952 27.7554 88.2314 28.1097L90.3572 30.2356C90.7115 30.5899 90.7115 30.708 90.2391 31.0623C88.4676 32.5976 86.4599 33.5425 83.9797 33.7787C79.8461 34.133 76.6573 32.4795 74.2953 29.1727C72.9961 27.5192 72.4056 25.2753 72.4056 22.3227C72.6418 18.5434 74.6496 15.1184 78.7832 13.2288C82.9168 11.3391 86.8142 12.0477 90.2391 15.0003C90.7115 15.3546 90.7115 15.4727 90.3572 15.9451L88.2314 18.071C87.8771 18.4253 87.6409 18.4253 87.2866 18.1891C83.5073 15.1184 78.0745 16.7718 76.6573 21.496C75.7125 25.1572 78.4289 29.1727 82.4444 29.527Z" fill="white"/>
</g>
<defs>
<clipPath id="clip0_117_394">
<rect width="95.6633" height="45" fill="white" transform="translate(0.362915)"/>
</clipPath>
</defs>
</svg>
